HIERARCHY
ROOT Hips
{
	OFFSET 0.000000 0.000000 0.000000
	CHANNELS 6 Xposition Yposition Zposition Xrotation Yrotation Zrotation
	JOINT LeftUpLeg_virtual
	{
		OFFSET 0.000000 0.000000 0.000000
		CHANNELS 3 Xrotation Yrotation Zrotation
		JOINT LeftUpLeg
		{
			OFFSET 13.026900 -6.336304 -1.092800
			CHANNELS 3 Xrotation Yrotation Zrotation
			JOINT LeftLeg
			{
				OFFSET 0.524474 -46.096886 9.782700
				CHANNELS 3 Xrotation Yrotation Zrotation
				JOINT LeftFoot
				{
					OFFSET -0.524474 -53.427422 -12.948200
					CHANNELS 3 Xrotation Yrotation Zrotation
					JOINT LeftToeBase
					{
						OFFSET 0.192200 -14.009700 16.364100
						CHANNELS 3 Xrotation Yrotation Zrotation
						JOINT LeftToe_End
						{
							OFFSET -1.784700 -0.561700 9.474800
							CHANNELS 3 Xrotation Yrotation Zrotation
							End Site
							{
								OFFSET 0 0 0
							}
						}
					}
				}
			}
		}
	}
	JOINT RightUpLeg_virtual
	{
		OFFSET 0.000000 0.000000 0.000000
		CHANNELS 3 Xrotation Yrotation Zrotation
		JOINT RightUpLeg
		{
			OFFSET -12.883000 -6.336304 -1.092800
			CHANNELS 3 Xrotation Yrotation Zrotation
			JOINT RightLeg
			{
				OFFSET -0.524587 -46.096825 9.782800
				CHANNELS 3 Xrotation Yrotation Zrotation
				JOINT RightFoot
				{
					OFFSET 0.524587 -53.427383 -12.948300
					CHANNELS 3 Xrotation Yrotation Zrotation
					JOINT RightToeBase
					{
						OFFSET -0.192200 -14.009700 16.364100
						CHANNELS 3 Xrotation Yrotation Zrotation
						JOINT RightToe_End
						{
							OFFSET 1.784700 -0.561700 9.474800
							CHANNELS 3 Xrotation Yrotation Zrotation
							End Site
							{
								OFFSET 0 0 0
							}
						}
					}
				}
			}
		}
	}
	JOINT Spine_virtual
	{
		OFFSET 0.000000 0.000000 0.000000
		CHANNELS 3 Xrotation Yrotation Zrotation
		JOINT Spine
		{
			OFFSET 0.072000 7.257294 -0.789700
			CHANNELS 3 Xrotation Yrotation Zrotation
			JOINT Spine1
			{
				OFFSET 0.000000 12.508769 -0.658067
				CHANNELS 3 Xrotation Yrotation Zrotation
				JOINT Spine1_split
				{
					OFFSET 0.000000 12.508769 -0.658067
					CHANNELS 3 Xrotation Yrotation Zrotation
					JOINT Spine2
					{
						OFFSET 0.000000 12.508769 -0.658067
						CHANNELS 3 Xrotation Yrotation Zrotation
						JOINT Neck_virtual
						{
							OFFSET 0.000000 0.000000 0.000000
							CHANNELS 3 Xrotation Yrotation Zrotation
							JOINT Neck
							{
								OFFSET 0.000000 14.033295 7.520400
								CHANNELS 3 Xrotation Yrotation Zrotation
								JOINT Head
								{
									OFFSET 0.000000 8.198502 5.703100
									CHANNELS 3 Xrotation Yrotation Zrotation
									JOINT HeadTop_End
									{
										OFFSET 0.000000 17.760803 13.332701
										CHANNELS 3 Xrotation Yrotation Zrotation
										End Site
										{
											OFFSET 0 0 0
										}
									}
								}
							}
						}
						JOINT LeftShoulder_virtual
						{
							OFFSET 0.000000 0.000000 0.000000
							CHANNELS 3 Xrotation Yrotation Zrotation
							JOINT LeftShoulder
							{
								OFFSET 6.292450 5.785301 -0.669000
								CHANNELS 3 Xrotation Yrotation Zrotation
								JOINT LeftShoulder_split
								{
									OFFSET 6.292450 5.785301 -0.669000
									CHANNELS 3 Xrotation Yrotation Zrotation
									JOINT LeftArm
									{
										OFFSET 13.907140 -6.093903 1.965100
										CHANNELS 3 Xrotation Yrotation Zrotation
										JOINT LeftForeArm
										{
											OFFSET 34.140198 0.000000 0.000000
											CHANNELS 3 Xrotation Yrotation Zrotation
											JOINT LeftHand
											{
												OFFSET 40.960209 0.000000 0.000000
												CHANNELS 3 Xrotation Yrotation Zrotation
												End Site
												{
													OFFSET 0 0 0
												}
											}
										}
									}
								}
							}
						}
						JOINT RightShoulder_virtual
						{
							OFFSET 0.000000 0.000000 0.000000
							CHANNELS 3 Xrotation Yrotation Zrotation
							JOINT RightShoulder
							{
								OFFSET -6.292450 5.785301 -0.669000
								CHANNELS 3 Xrotation Yrotation Zrotation
								JOINT RightShoulder_split
								{
									OFFSET -6.292450 5.785301 -0.669000
									CHANNELS 3 Xrotation Yrotation Zrotation
									JOINT RightArm
									{
										OFFSET -13.907140 -6.093903 1.965100
										CHANNELS 3 Xrotation Yrotation Zrotation
										JOINT RightForeArm
										{
											OFFSET -34.140198 0.000000 0.000000
											CHANNELS 3 Xrotation Yrotation Zrotation
											JOINT RightHand
											{
												OFFSET -40.960209 0.000000 0.000000
												CHANNELS 3 Xrotation Yrotation Zrotation
												End Site
												{
													OFFSET 0 0 0
												}
											}
										}
									}
								}
							}
						}
					}
				}
			}
		}
	}
}
MOTION
Frames: 9
Frame Time: 0.03333333
-0.409936 143.844910 11.381260 0.000000 0.000000 0.000000 8.203027 -39.271317 4.553768 -85.492590 -18.719155 22.994754 70.799999 -0.579436 2.145094 18.042684 0.926728 -1.309985 -5.475051 1.814071 -0.993293 0.000000 0.000000 0.000000 7.829394 -41.236714 3.800660 -118.493714 -40.552889 -3.268310 109.900756 11.870216 -16.526353 41.885698 5.644505 26.881273 8.271887 3.492933 -3.856631 0.000000 0.000000 0.000000 7.235104 -40.627659 2.718094 32.138991 -7.312963 -8.174951 12.762106 0.972093 -3.701306 0.353748 1.611663 1.069461 0.000000 0.000000 0.000000 12.585027 0.867228 -2.512017 -7.709583 18.587721 -13.962044 -27.588220 11.075445 4.457771 0.000000 0.000000 0.000000 13.975548 1.228414 -2.974334 13.184603 -18.380206 4.879410 1.790446 -4.531893 -3.272435 -59.076280 -10.215780 -6.040333 47.992307 -16.408220 29.614624 0.000000 0.000000 0.000000 14.858812 1.167870 -3.071072 18.779702 25.762792 -7.295386 0.084226 3.598564 3.057368 -35.074565 2.033979 8.609244 -43.546964 48.400117 33.407828 0.000000 0.000000 0.000000 
-0.389600 143.833130 11.359730 0.000000 0.000000 0.000000 8.174825 -39.562395 4.697821 -85.371573 -18.624048 23.107194 70.691816 -0.616063 1.986513 17.917490 1.136192 -1.475313 -5.438722 1.806093 -1.006451 0.000000 0.000000 0.000000 7.831796 -41.501309 3.943574 -118.052074 -40.537924 -3.220324 109.569765 12.100395 -16.478904 41.599896 5.496984 26.538524 8.253675 3.493466 -3.933435 0.000000 0.000000 0.000000 7.147332 -40.760452 2.815691 32.111906 -7.323374 -8.224986 12.737541 0.987346 -3.685693 0.299516 1.620407 1.079916 0.000000 0.000000 0.000000 12.624263 0.869175 -2.518101 -7.693552 18.592007 -13.974551 -27.345229 11.143589 4.316954 0.000000 0.000000 0.000000 13.942784 1.243803 -2.952574 12.907225 -18.461708 4.189267 1.947117 -4.623575 -3.535170 -58.261302 -9.620524 -5.913832 47.850492 -16.313207 29.349599 0.000000 0.000000 0.000000 14.839462 1.152351 -3.078292 18.298618 26.182231 -6.295827 0.079575 3.688140 3.039680 -33.982599 1.897796 8.544180 -43.663610 48.147445 33.328953 0.000000 0.000000 0.000000 
-0.387363 143.817337 11.360165 0.000000 0.000000 0.000000 8.221400 -39.760847 4.861596 -85.213105 -18.565673 23.159592 70.517776 -0.692423 1.828172 17.685074 1.403426 -1.629805 -5.426269 1.786140 -0.999336 0.000000 0.000000 0.000000 7.883535 -41.664885 4.091565 -117.607538 -40.468734 -3.148387 109.289734 12.318545 -16.444589 41.266545 5.385553 26.262501 8.197820 3.492377 -3.997991 0.000000 0.000000 0.000000 7.099530 -40.889078 2.936862 32.027300 -7.326640 -8.257724 12.698620 0.998241 -3.673910 0.266059 1.620793 1.094240 0.000000 0.000000 0.000000 12.642230 0.874791 -2.533562 -7.611247 18.584733 -13.997867 -27.042112 11.208299 4.214446 0.000000 0.000000 0.000000 13.906936 1.259119 -2.935141 12.677488 -18.467699 3.603774 2.012360 -4.737020 -3.812336 -57.341788 -8.786990 -5.634045 47.697687 -16.351900 29.150657 0.000000 0.000000 0.000000 14.810143 1.141979 -3.088348 17.859162 26.549963 -5.432241 0.073311 3.742034 3.092156 -33.039145 1.532151 8.363744 -43.746942 47.795031 33.194695 0.000000 0.000000 0.000000 
-0.405551 143.809204 11.336033 0.000000 0.000000 0.000000 8.322609 -39.831512 5.037787 -85.020077 -18.554870 23.138782 70.290891 -0.797252 1.676419 17.382627 1.717819 -1.762432 -5.443330 1.756954 -0.971480 0.000000 0.000000 0.000000 7.973444 -41.733535 4.253289 -117.178001 -40.358560 -3.098611 109.048539 12.525485 -16.421281 40.883074 5.332045 26.055247 8.122592 3.492546 -4.056898 0.000000 0.000000 0.000000 7.078030 -41.003596 3.085515 31.901597 -7.331553 -8.276192 12.659992 1.003434 -3.668075 0.277543 1.640226 1.156922 0.000000 0.000000 0.000000 12.644455 0.884641 -2.558270 -7.502264 18.562212 -14.013093 -26.702196 11.249779 4.165143 0.000000 0.000000 0.000000 13.871272 1.273749 -2.925039 12.483444 -18.408495 3.071752 1.963869 -4.813425 -4.096491 -56.333064 -7.689077 -5.269572 47.610281 -16.570452 29.078738 0.000000 0.000000 0.000000 14.773149 1.137207 -3.099065 17.465627 26.860994 -4.676235 0.089124 3.757541 3.207641 -32.306354 1.136575 8.135165 -43.708614 47.311832 32.924357 0.000000 0.000000 0.000000 
-0.448292 143.816422 11.304428 0.000000 0.000000 0.000000 8.431128 -39.799540 5.222297 -84.787113 -18.577882 23.063218 70.021248 -0.916960 1.526036 17.038991 2.072406 -1.865899 -5.484255 1.724781 -0.933367 0.000000 0.000000 0.000000 8.099097 -41.739054 4.441266 -116.781017 -40.226881 -3.121974 108.849528 12.711990 -16.381830 40.474458 5.330056 25.890667 8.034248 3.497012 -4.113659 0.000000 0.000000 0.000000 7.074809 -41.095957 3.249649 31.752033 -7.341012 -8.286739 12.621527 1.008954 -3.673391 0.321543 1.669454 1.181436 0.000000 0.000000 0.000000 12.625536 0.901622 -2.592559 -7.394803 18.530643 -14.019356 -26.351245 11.272583 4.180033 0.000000 0.000000 0.000000 13.829959 1.287060 -2.924153 12.299244 -18.298208 2.516985 1.808968 -4.801242 -4.300766 -55.299927 -6.295086 -4.841208 47.680820 -17.018016 29.188687 0.000000 0.000000 0.000000 14.724250 1.138504 -3.111127 17.114642 27.107627 -3.984429 0.099616 3.722184 3.371008 -31.747173 0.845476 7.894113 -43.548251 46.731557 32.535709 0.000000 0.000000 0.000000 
-0.499647 143.839340 11.277969 0.000000 0.000000 0.000000 8.543085 -39.709569 5.424293 -84.529342 -18.610420 22.944086 69.728329 -1.045515 1.379303 16.689647 2.438356 -1.946120 -5.532405 1.695048 -0.893893 0.000000 0.000000 0.000000 8.226037 -41.726479 4.652645 -116.440068 -40.083173 -3.247529 108.696204 12.883180 -16.324719 40.078362 5.378014 25.756000 7.923885 3.506873 -4.172282 0.000000 0.000000 0.000000 7.056988 -41.154007 3.415985 31.602121 -7.352762 -8.287304 12.583522 1.016910 -3.684721 0.356120 1.670689 1.200941 0.000000 0.000000 0.000000 12.582599 0.925341 -2.628655 -7.315574 18.490217 -14.012905 -26.001108 11.256764 4.248997 0.000000 0.000000 0.000000 13.776927 1.303122 -2.928636 12.106058 -18.119426 1.883447 1.562865 -4.728327 -4.380285 -54.345315 -4.658488 -4.381053 47.919856 -17.625722 29.465593 0.000000 0.000000 0.000000 14.661090 1.146208 -3.119905 16.797701 27.283081 -3.315119 0.091560 3.615655 3.549007 -31.331492 0.661281 7.677620 -43.269324 46.065371 32.047927 0.000000 0.000000 0.000000 
-0.565520 143.874329 11.265244 0.000000 0.000000 0.000000 8.613476 -39.602441 5.633816 -84.256011 -18.611343 22.824110 69.430765 -1.188165 1.238758 16.359816 2.767750 -2.028431 -5.554609 1.669019 -0.860301 0.000000 0.000000 0.000000 8.330514 -41.702113 4.880582 -116.177187 -39.930526 -3.474602 108.581921 13.041411 -16.250407 39.730046 5.468299 25.645163 7.767131 3.522783 -4.229162 0.000000 0.000000 0.000000 7.005392 -41.163576 3.555320 31.464851 -7.363509 -8.279064 12.538306 1.027903 -3.691090 0.382098 1.698004 1.174054 0.000000 0.000000 0.000000 12.512691 0.952013 -2.659975 -7.274988 18.436357 -13.995907 -25.650499 11.198734 4.346394 0.000000 0.000000 0.000000 13.710952 1.320610 -2.931776 11.896389 -17.847279 1.166533 1.230315 -4.607255 -4.394935 -53.528124 -2.806308 -3.904508 48.224243 -18.224963 29.796714 0.000000 0.000000 0.000000 14.578262 1.158536 -3.113246 16.498868 27.351479 -2.644596 0.015500 3.519548 3.669970 -30.947379 0.478089 7.515229 -42.981175 45.417377 31.595861 0.000000 0.000000 0.000000 
-0.632839 143.926239 11.290306 0.000000 0.000000 0.000000 8.640269 -39.519225 5.843337 -83.964868 -18.554339 22.742261 69.135994 -1.347537 1.111715 16.051896 3.027394 -2.137158 -5.535629 1.647683 -0.834328 0.000000 0.000000 0.000000 8.387969 -41.689176 5.100112 -115.971285 -39.783482 -3.746981 108.515539 13.186385 -16.169240 39.444711 5.573292 25.541894 7.557376 3.542278 -4.272167 0.000000 0.000000 0.000000 6.927705 -41.128845 3.654678 31.349554 -7.366707 -8.263440 12.476643 1.045459 -3.682961 0.378989 1.738364 1.094166 0.000000 0.000000 0.000000 12.405976 0.981737 -2.676856 -7.263407 18.366483 -13.984916 -25.311322 11.088508 4.448846 0.000000 0.000000 0.000000 13.633214 1.342576 -2.928549 11.674390 -17.451195 0.398777 0.880105 -4.517524 -4.309448 -52.882135 -0.847097 -3.436771 48.492707 -18.672747 30.074334 0.000000 0.000000 0.000000 14.481374 1.182530 -3.086412 16.221597 27.301094 -1.982640 -0.153990 3.456009 3.738055 -30.556791 0.108397 7.422587 -42.809051 44.907606 31.334309 0.000000 0.000000 0.000000 
-0.693650 143.984344 11.335129 0.000000 0.000000 0.000000 8.632440 -39.457132 6.033533 -83.667222 -18.431749 22.708557 68.847371 -1.502969 1.005361 15.749045 3.202567 -2.254066 -5.492300 1.627555 -0.804538 0.000000 0.000000 0.000000 8.381936 -41.668785 5.278313 -115.779056 -39.652680 -3.986609 108.491456 13.309798 -16.089648 39.207574 5.647085 25.414548 7.356521 3.561345 -4.293414 0.000000 0.000000 0.000000 6.837679 -41.037081 3.722570 31.260403 -7.364048 -8.241761 12.396746 1.068864 -3.658029 0.352751 1.741588 1.090825 0.000000 0.000000 0.000000 12.284512 1.015689 -2.672193 -7.264413 18.262667 -13.974430 -24.990559 10.928666 4.522989 0.000000 0.000000 0.000000 13.539795 1.371696 -2.915691 11.452895 -16.903347 -0.334733 0.532263 -4.499591 -4.178322 -52.413144 1.126933 -2.981322 48.595481 -18.846188 30.194047 0.000000 0.000000 0.000000 14.369372 1.218522 -3.035022 15.960895 27.114435 -1.356161 -0.356982 3.489617 3.705637 -30.196246 -0.631090 7.337307 -42.866264 44.609444 31.384303 0.000000 0.000000 0.000000 
